<?xml version="1.0" encoding="utf-8"?>
<!-- Generator: Adobe Illustrator 20.1.0, SVG Export Plug-In . SVG Version: 6.00 Build 0)  -->
<svg version="1.1" id="Layer_1" xmlns="http://www.w3.org/2000/svg" xmlns:xlink="http://www.w3.org/1999/xlink" x="0px" y="0px"
	 viewBox="0 0 172.4 106.4" style="enable-background:new 0 0 172.4 106.4;" xml:space="preserve">
<style type="text/css">
	.st0{fill:#FFFFFF;}
</style>
<g>
	<path class="st0" d="M66.8,38.6v16.5c0,9.9-8.1,18-18,18c-9.9,0-18-8.1-18-18V2.6c0-0.9,0.1-1.7,0.2-2.6H0c0,0,0,0.1,0,0.1v57.4
		c0,26.9,21.9,48.9,48.9,48.9s48.9-21.9,48.9-48.9V38.6H66.8z"/>
	<polygon class="st0" points="172.4,0 67.3,0 67.3,30.9 105,30.9 105,106.4 135.8,106.4 135.8,30.9 172.4,30.9 	"/>
</g>
</svg>
